<?xml version="1.0" standalone="no"?>
<!DOCTYPE svg PUBLIC "-//W3C//DTD SVG 20010904//EN"
 "http://www.w3.org/TR/2001/REC-SVG-20010904/DTD/svg10.dtd">
<svg version="1.0" xmlns="http://www.w3.org/2000/svg"
 width="300.000000pt" height="300.000000pt" viewBox="0 0 300.000000 300.000000"
 preserveAspectRatio="xMidYMid meet">
<metadata>
Created by potrace 1.14, written by Peter Selinger 2001-2017
</metadata>
<g transform="translate(0.000000,300.000000) scale(0.100000,-0.100000)"
fill="#000000" stroke="none">
<path d="M1493 2976 c-17 -12 -68 -47 -114 -79 -228 -158 -279 -193 -334 -231
-33 -22 -64 -45 -70 -49 -5 -4 -84 -59 -175 -122 -91 -63 -172 -119 -180 -125
-8 -5 -67 -46 -130 -89 -63 -44 -132 -92 -152 -107 l-38 -28 0 -602 0 -603
160 -126 c88 -69 168 -132 178 -140 9 -8 87 -69 172 -136 85 -66 166 -132 181
-145 14 -13 28 -24 32 -24 5 0 18 -9 30 -21 12 -12 47 -40 77 -63 30 -22 57
-43 60 -46 7 -8 108 -89 150 -120 18 -14 60 -46 93 -72 l59 -48 31 24 c18 13
84 62 147 109 63 47 151 113 195 145 44 33 241 180 438 326 196 146 366 272
377 278 19 12 20 27 17 627 l-2 614 -30 24 c-27 21 -344 256 -404 300 -14 10
-48 36 -77 58 -29 22 -97 72 -151 112 -54 40 -107 79 -118 88 -11 8 -104 77
-206 153 l-186 138 -30 -20z"/>
</g>
</svg>
